<mxfile host="app.diagrams.net" agent="Mozilla/5.0 (Windows NT 10.0; Win64; x64) AppleWebKit/537.36 (KHTML, like Gecko) Chrome/138.0.0.0 Safari/537.36" version="28.0.7">
  <diagram name="Page-1" id="M09gZJEylp6OCQNrpg6R">
    <mxGraphModel dx="1434" dy="897" grid="1" gridSize="10" guides="1" tooltips="1" connect="1" arrows="1" fold="1" page="1" pageScale="1" pageWidth="1400" pageHeight="850" math="0" shadow="0">
      <root>
        <mxCell id="0" />
        <mxCell id="1" parent="0" />
        <mxCell id="LopVDnUaFD7QRKL_kpaw-5" style="edgeStyle=orthogonalEdgeStyle;rounded=0;orthogonalLoop=1;jettySize=auto;html=1;exitX=0;exitY=0.5;exitDx=0;exitDy=0;endArrow=none;endFill=0;startArrow=classic;startFill=1;strokeWidth=2;" edge="1" parent="1" source="LopVDnUaFD7QRKL_kpaw-1">
          <mxGeometry relative="1" as="geometry">
            <mxPoint x="60" y="424" as="targetPoint" />
          </mxGeometry>
        </mxCell>
        <mxCell id="LopVDnUaFD7QRKL_kpaw-10" style="edgeStyle=orthogonalEdgeStyle;rounded=0;orthogonalLoop=1;jettySize=auto;html=1;exitX=0.5;exitY=1;exitDx=0;exitDy=0;entryX=0;entryY=0.5;entryDx=0;entryDy=0;strokeWidth=2;" edge="1" parent="1" source="LopVDnUaFD7QRKL_kpaw-1" target="LopVDnUaFD7QRKL_kpaw-8">
          <mxGeometry relative="1" as="geometry" />
        </mxCell>
        <mxCell id="LopVDnUaFD7QRKL_kpaw-1" value="" style="ellipse;whiteSpace=wrap;html=1;aspect=fixed;strokeWidth=2;" vertex="1" parent="1">
          <mxGeometry x="500" y="225" width="400" height="400" as="geometry" />
        </mxCell>
        <mxCell id="LopVDnUaFD7QRKL_kpaw-2" value="" style="endArrow=none;html=1;rounded=0;exitX=0.024;exitY=0.4;exitDx=0;exitDy=0;exitPerimeter=0;entryX=0.976;entryY=0.405;entryDx=0;entryDy=0;entryPerimeter=0;strokeWidth=2;" edge="1" parent="1" source="LopVDnUaFD7QRKL_kpaw-1" target="LopVDnUaFD7QRKL_kpaw-1">
          <mxGeometry width="50" height="50" relative="1" as="geometry">
            <mxPoint x="530" y="393" as="sourcePoint" />
            <mxPoint x="890" y="393" as="targetPoint" />
          </mxGeometry>
        </mxCell>
        <mxCell id="LopVDnUaFD7QRKL_kpaw-3" value="&lt;b&gt;&lt;font&gt;2.1&lt;/font&gt;&lt;/b&gt;" style="text;html=1;align=center;verticalAlign=middle;whiteSpace=wrap;rounded=0;fontSize=40;strokeWidth=2;" vertex="1" parent="1">
          <mxGeometry x="670" y="325" width="60" height="30" as="geometry" />
        </mxCell>
        <mxCell id="LopVDnUaFD7QRKL_kpaw-4" value="&lt;b&gt;&lt;font&gt;Collect Accommodation Information&lt;/font&gt;&lt;/b&gt;" style="text;html=1;align=center;verticalAlign=middle;whiteSpace=wrap;rounded=0;strokeWidth=2;fontSize=40;" vertex="1" parent="1">
          <mxGeometry x="600" y="409" width="200" height="160" as="geometry" />
        </mxCell>
        <mxCell id="LopVDnUaFD7QRKL_kpaw-6" value="&lt;font style=&quot;font-size: 30px;&quot;&gt;Accommodation Information&lt;/font&gt;" style="edgeLabel;html=1;align=center;verticalAlign=middle;resizable=0;points=[];" vertex="1" connectable="0" parent="1">
          <mxGeometry x="280" y="400" as="geometry" />
        </mxCell>
        <mxCell id="LopVDnUaFD7QRKL_kpaw-7" value="&lt;font style=&quot;font-size: 40px;&quot;&gt;D2&lt;/font&gt;" style="shape=partialRectangle;whiteSpace=wrap;html=1;top=0;bottom=0;fillColor=none;fontStyle=1;strokeWidth=2;" vertex="1" parent="1">
          <mxGeometry x="400" y="728.75" width="70" height="60" as="geometry" />
        </mxCell>
        <mxCell id="LopVDnUaFD7QRKL_kpaw-8" value="" style="shape=partialRectangle;whiteSpace=wrap;html=1;top=0;bottom=0;fillColor=none;rotation=90;fontStyle=1;strokeWidth=2;" vertex="1" parent="1">
          <mxGeometry x="670.25" y="460" width="60" height="597.5" as="geometry" />
        </mxCell>
        <mxCell id="LopVDnUaFD7QRKL_kpaw-9" value="&lt;font style=&quot;font-size: 40px;&quot;&gt;Accommodation Catalogue&lt;/font&gt;" style="text;html=1;align=center;verticalAlign=middle;whiteSpace=wrap;rounded=0;strokeWidth=2;" vertex="1" parent="1">
          <mxGeometry x="470" y="743.75" width="518.5" height="30" as="geometry" />
        </mxCell>
        <mxCell id="LopVDnUaFD7QRKL_kpaw-11" value="" style="ellipse;whiteSpace=wrap;html=1;aspect=fixed;strokeWidth=2;" vertex="1" parent="1">
          <mxGeometry x="2230" y="224.75" width="400" height="400" as="geometry" />
        </mxCell>
        <mxCell id="LopVDnUaFD7QRKL_kpaw-12" value="" style="endArrow=none;html=1;rounded=0;exitX=0.024;exitY=0.4;exitDx=0;exitDy=0;exitPerimeter=0;entryX=0.976;entryY=0.405;entryDx=0;entryDy=0;entryPerimeter=0;strokeWidth=2;" edge="1" parent="1" source="LopVDnUaFD7QRKL_kpaw-11" target="LopVDnUaFD7QRKL_kpaw-11">
          <mxGeometry width="50" height="50" relative="1" as="geometry">
            <mxPoint x="2260" y="392.75" as="sourcePoint" />
            <mxPoint x="2620" y="392.75" as="targetPoint" />
          </mxGeometry>
        </mxCell>
        <mxCell id="LopVDnUaFD7QRKL_kpaw-13" value="&lt;b&gt;&lt;font&gt;2.1&lt;/font&gt;&lt;/b&gt;" style="text;html=1;align=center;verticalAlign=middle;whiteSpace=wrap;rounded=0;fontSize=40;strokeWidth=2;" vertex="1" parent="1">
          <mxGeometry x="2400" y="324.75" width="60" height="30" as="geometry" />
        </mxCell>
        <mxCell id="LopVDnUaFD7QRKL_kpaw-14" value="&lt;b&gt;&lt;font&gt;Collect Accommodation Information&lt;/font&gt;&lt;/b&gt;" style="text;html=1;align=center;verticalAlign=middle;whiteSpace=wrap;rounded=0;strokeWidth=2;fontSize=40;" vertex="1" parent="1">
          <mxGeometry x="2330" y="408.75" width="200" height="160" as="geometry" />
        </mxCell>
        <mxCell id="LopVDnUaFD7QRKL_kpaw-16" value="&lt;font style=&quot;font-size: 30px;&quot;&gt;Collected&lt;/font&gt;&lt;div&gt;&lt;font style=&quot;font-size: 30px;&quot;&gt;Accommodation Information&lt;/font&gt;&lt;/div&gt;" style="edgeLabel;html=1;align=center;verticalAlign=middle;resizable=0;points=[];" vertex="1" connectable="0" parent="1">
          <mxGeometry x="1120" y="380" as="geometry" />
        </mxCell>
      </root>
    </mxGraphModel>
  </diagram>
</mxfile>
